# xmcd
#
# Track frame offsets: 
#        150
#        20829
#        44896
#        67797
#        92083
#        122302
#        143261
#        175203
#        195347
#        214033
#
# Disc length: 3181 seconds
#
# Revision: 1
# Processed by: cddbd v1.5.2PL0 Copyright (c) Steve Scherf et al.
# Submitted via: ExactAudioCopy v0.95b3
#
DISCID=810c6b0a
DTITLE=Agatsuma - Beyond
DYEAR=2004
DGENRE=JPop
TTITLE0=Dawnlight
TTITLE1=A Paper in the Air
TTITLE2=An End of Sorrow
TTITLE3=Heartbeat
TTITLE4=Tears...
TTITLE5=Shami's Groove
TTITLE6=Baetnorae - Tsugaru Yosare Bushi
TTITLE7=In The Sky
TTITLE8=Panther
TTITLE9=Thought of You
EXTD=YEAR: 2004
EXTT0=
EXTT1=
EXTT2=
EXTT3=
EXTT4=
EXTT5=
EXTT6=
EXTT7=
EXTT8=
EXTT9=
PLAYORDER=
